<svg xmlns="http://www.w3.org/2000/svg" xmlns:xlink="http://www.w3.org/1999/xlink" viewBox="0 0 225.032 150.322">
  <defs>
    <style>
      .cls-1, .cls-13, .cls-4 {
        fill: #304352;
      }

      .cls-1 {
        opacity: 0.05;
      }

      .cls-2, .cls-7 {
        fill: #d7d2cc;
      }

      .cls-2, .cls-3, .cls-4, .cls-5 {
        opacity: 0.6;
      }

      .cls-3 {
        fill: #cee7e6;
      }

      .cls-5, .cls-6, .cls-8 {
        fill: #efd0ca;
      }

      .cls-6 {
        opacity: 0.89;
      }

      .cls-9 {
        opacity: 0.33;
      }

      .cls-10, .cls-11, .cls-12 {
        fill: none;
        stroke: #304352;
        stroke-miterlimit: 10;
        stroke-width: 1.2px;
      }

      .cls-11, .cls-12 {
        stroke-linecap: round;
      }

      .cls-11 {
        stroke-linejoin: bevel;
      }

      .cls-14 {
        filter: url(#Path_2);
      }

      .cls-15 {
        filter: url(#Rectangle_13);
      }
    </style>
    <filter id="Rectangle_13" x="58.387" y="54.064" width="66.053" height="12.898" filterUnits="userSpaceOnUse">
      <feOffset dx="3" dy="1" input="SourceAlpha"/>
      <feGaussianBlur stdDeviation="1.5" result="blur"/>
      <feFlood flood-color="#304352" flood-opacity="0.302"/>
      <feComposite operator="in" in2="blur"/>
      <feComposite in="SourceGraphic"/>
    </filter>
    <filter id="Path_2" x="52.779" y="0" width="65.444" height="65.444" filterUnits="userSpaceOnUse">
      <feOffset dx="1" dy="1" input="SourceAlpha"/>
      <feGaussianBlur stdDeviation="1.5" result="blur-2"/>
      <feFlood flood-color="#304352" flood-opacity="0.302"/>
      <feComposite operator="in" in2="blur-2"/>
      <feComposite in="SourceGraphic"/>
    </filter>
  </defs>
  <g id="voteshack-logo" transform="translate(102 -91.061)">
    <path id="Path_1" data-name="Path 1" class="cls-1" d="M-511.5,112.808c184.307-60.2,224.855-26.256,224.855-26.256h0l-45.934,26.256Z" transform="translate(409.677 128.335)"/>
    <rect id="Rectangle_8" data-name="Rectangle 8" class="cls-2" width="11.694" height="80.795" transform="translate(-102 159.72)"/>
    <rect id="Rectangle_9" data-name="Rectangle 9" class="cls-3" width="11.694" height="80.795" transform="translate(65.26 159.72)"/>
    <path id="Path_15" data-name="Path 15" class="cls-4" d="M0,0H11.694V178.954H0Z" transform="translate(77.131 229.689) rotate(90)"/>
    <rect id="Rectangle_11" data-name="Rectangle 11" class="cls-5" width="11.694" height="178.954" transform="translate(77.131 159.899) rotate(90)"/>
    <rect id="Rectangle_12" data-name="Rectangle 12" class="cls-6" width="37.917" height="80.441" transform="translate(-31.127 160.078)"/>
    <g class="cls-15" transform="matrix(1, 0, 0, 1, -102, 91.06)">
      <rect id="Rectangle_13-2" data-name="Rectangle 13" class="cls-7" width="57.053" height="3.898" transform="translate(59.89 57.56)"/>
    </g>
    <g class="cls-14" transform="matrix(1, 0, 0, 1, -102, 91.06)">
      <path id="Path_2-2" data-name="Path 2" class="cls-8" d="M0,0,28.822.141l.247,50.614L.247,50.614Z" transform="translate(92.17 3.5) rotate(45)"/>
    </g>
    <g id="Icon_11_" class="cls-9" transform="translate(-18.086 111.96) rotate(45)">
      <path id="Path_11" data-name="Path 11" class="cls-10" d="M0,.737C0,.44.284,0,.564,0L5.415.026c.282,0,.361.445.362.739l.049,10.056c0,.3-.075.536-.356.535L.62,11.332a.58.58,0,0,1-.567-.54Z" transform="translate(0.032 6.609)"/>
      <path id="Path_12" data-name="Path 12" class="cls-11" d="M0,0,5.495.027C6.146.03,6.728,1.8,6.6,2.453c0,0-1.539,6.746-1.916,7.794s-1.657,1.1-1.931,1.1l-.922,0" transform="translate(12.908 5.728)"/>
      <path id="Path_13" data-name="Path 13" class="cls-12" d="M.039,8.082l1-.419L3.169,3.629A13.724,13.724,0,0,1,3.284.842c.21-.644,2.171-1.809,3.342.83s.02,4.105.02,4.105" transform="translate(6.231 0.03)"/>
      <path id="Path_14" data-name="Path 14" class="cls-11" d="M3.62,1.452C2.607,1.055,0,0,0,0" transform="translate(6.174 15.768)"/>
      <line id="Line_14" data-name="Line 14" class="cls-12" x2="5.774" y2="0.028" transform="translate(9.854 17.042)"/>
    </g>
    <rect id="Rectangle_14" data-name="Rectangle 14" class="cls-13" width="7.087" height="7.796" transform="translate(-26.875 195.152)"/>
  </g>
</svg>
